<svg height="323" viewBox="0 0 252 323" width="252" xmlns="http://www.w3.org/2000/svg"><g fill="none" transform="translate(1 1)"><path d="m1.96463654 59.9585128.00692331 248.3494172c0 6.044969 4.91416682 10.945508 10.97483415 10.945508l223.622976-.006927c6.060667 0 10.974834-4.90054 10.974834-10.946894v-38.705533l-.186929-21.33127-.006923-235.8438284c0-6.04496851-4.912783-10.94550819-10.974834-10.94550819l-175.9698206.00415681-58.44106086 58.42961478z" fill="#fff"/><path d="m.16611555 60.0364794c.00138392 31.980582.00138392 63.9597796.00276785 95.9389776.00138393 45.684964.00276786 91.369928.00415179 137.054891 0 10.47974-2.59071519 26.229118 12.27683461 27.214925 10.7642002.714433 21.8176416 0 32.597065-.001385 48.6409547-.001385 97.2832932-.002769 145.9242472-.004154 14.3638 0 28.741439.182763 43.105238-.001384 6.669155-.084459 13.479469-2.526823 15.22322-9.820689.862188-3.608165.351518-7.76877.350135-11.43924 0-6.19314 0-12.38628 0-18.57942 0-27.141542-.185447-54.28447-.186831-81.427397-.001384-49.133905-.002768-98.266424-.004152-147.4003285 0-12.8168783.318304-25.6808314-.001384-38.496325-.37366-15.02386775-15.261969-12.98164077-25.79367-12.98164077-46.210775.00138456-92.42155.00276912-138.6309408.00415368-6.8033954 0-13.6067908 0-20.4101857 0-3.0404921 0-4.6707608-.01384561-6.9736189 2.13914623-15.8335321 14.81479916-30.7536713 30.74416956-46.0889892 46.07402526-2.87165271 2.8701942-5.74192157 5.7403887-8.61357438 8.6091981-.59785735.5981302-2.75817061 2.1003787-2.78031347 3.1166464-.04013395 1.8774641 4.00232282 1.1533389 4.03553712-.4070609-.01522322.7393551-.29339296.5344405.49959839-.2644514.97290213-.9774995 1.95133995-1.9494612 2.92700994-2.9241921 3.0750904-3.0764936 6.1515647-6.1516031 9.228039-9.2267121 8.5831279-8.5801225 17.166256-17.1602449 25.7507679-25.7403674 5.831877-5.8303849 13.73688-11.6926148 18.4754527-18.47003925 1.6842417-2.407751-1.3770093-.68397297-.4304017-.31706439 1.2759828.49567272 3.7642868 0 5.1150019 0 42.9336312-.00138456 85.8686462-.00276912 128.8022772-.00415368 13.431031 0 27.412867-1.13257063 40.807916-.00138456 13.515451 1.14226254 10.044557 19.67183798 10.045941 29.13531008 0 45.0951407.001384 90.1916663.002768 135.2868073.001384 29.282074-.192366 58.572454.060893 87.853143.152232 17.49254 1.533393 35.594286.127321 52.996829-.708571 8.77673-6.909958 9.697463-13.608174 9.697463-6.36469 0-12.730763 0-19.096837 0-46.199704.001385-92.399408.002769-138.5977275.004154-17.3987559 0-34.7961281.001384-52.1948842.001384-2.6931259 0-5.5274126.256144-8.213619 0-8.97616382-.855658-9.69442298-7.779846-9.69442298-14.555886-.00138393-38.640319-.00138393-77.280638-.00276786-115.920957-.00138393-40.184105-.00276786-80.366824-.00415179-120.5509282 0-2.3329848 0-4.6659696 0-6.9989543 0-1.8843871-4.03553712-1.1436474-4.03553712.4070609" fill="#5d7183" stroke="#587184"/><path d="m58.7090825 1.93062173c.0013841 13.14224987.0013841 26.28449967.0013841 39.42813407 0 7.3229414.8400447 15.8809107-8.6772353 17.7736052-5.5952253 1.1131871-12.545317 0-18.2304976.0013846-7.7181723 0-15.4349607 0-23.15174912 0-.64075914 0-4.55451052.5261331-5.11361786 0 .98812535.9304248 1.23861651-.2436827 2.28486688-1.1547235 10.3683965-9.0287201 19.6753194-19.6856836 29.3918853-29.406684 9.1048693-9.1104092 18.2111223-18.2208184 27.3159916-27.32984302.8248217-.82519815-2.9339293-.39736891-3.6314298.30044967-19.5092478 19.52092085-39.0198797 39.04045715-58.53051151 58.56137795-.44147337.4416748.0761161.6687426.51620554.6687426 9.88817307 0 19.77773017-.0013846 29.66590317-.0013846 7.8288867 0 19.1674176 1.9051557 26.2323753-2.5143619 8.5153154-5.3277893 5.9384396-18.5517284 5.9384396-27.0570846 0-10.1142156-.0013841-20.2298159-.0013841-30.34541611 0-.64243614-4.0106262-.07753539-4.0106262 1.07580364" fill="#5d7183" stroke="#5d7183" stroke-width="2"/><path d="m214.010833 163.630693c0-47.32013-38.344522-85.6807677-85.643065-85.6807677-47.2985435 0-85.6416822 38.3606377-85.6416822 85.6807677s38.3431387 85.680768 85.6416822 85.680768c47.298543 0 85.643065-38.360638 85.643065-85.680768" fill="#bbf9bc"/><path d="m209.109037 156.504359c-.409724-36.848697-23.638973-70.0767691-58.699431-82.0919862-33.953316-11.6358482-72.8749366-.8182756-96.0349891 26.5600272-23.7869728 28.119043-27.1886705 69.291723-8.1070566 100.852783 18.8311224 31.145693 56.0311357 47.084755 91.6077997 40.229795 40.846667-7.869842 70.772748-44.05672 71.233677-85.550619.020679-1.881618-4.01901-1.149185-4.037002.407061-.386116 34.877083-21.661257 66.985045-54.709483 79.148411-33.277958 12.246439-71.4411856 1.129801-93.6463275-26.298346-21.787195-26.910321-24.9287139-65.610176-7.6296008-95.641297 17.9786224-31.2107666 54.8118943-47.6607317 90.0259693-39.7908889 38.398495 8.5801223 65.527657 43.5527399 65.959442 82.5821209.022143 1.888541 4.053529 1.139494 4.037002-.407061" fill="#5d7183" stroke="#587285" stroke-width="3"/><path d="m145.211568 111.346913v52.465157h28.183715c3.155358 0 4.735805 3.817234 2.504912 6.049146l-44.970775 44.991299c-1.414375 1.415021-3.707546 1.415021-5.121921 0l-44.970775-44.991299c-2.2308934-2.231912-.6504465-6.049146 2.5049116-6.049146h27.3007684v-52.465157z" fill="#fff"/><path d="m136.253395 104.550105v52.465157c0 1.059189.959063 1.439943 1.886296 1.439943h19.420676c1.790804 0 6.860136-.930425 8.426744 0 4.119957 2.450673.805447 3.927999-.377812 5.493937-3.744912 4.952573-9.211432 9.215636-13.595719 13.601924-6.013172 6.015916-12.027728 12.033216-18.042284 18.050517-2.388661 2.389752-4.775939 4.778119-7.164601 7.167871-.928616.92904-2.84259 3.710623-4.15317 4.155066-2.841207.96227-6.595806-4.567665-8.367236-6.339903-11.128173-11.133252-22.2563465-22.266505-33.3859039-33.401142-1.2912058-1.291795-4.2666533-3.303561-5.0153591-5.017647-2.0066969-4.593972 2.5464293-3.710623 5.1731268-3.710623h22.5123742c.840045 0 2.190759-.714433 2.190759-1.691933 0-17.488386 0-34.976772 0-52.465158-.730714.564901-1.460045 1.128417-2.190759 1.693318h34.569164c2.359599 0 3.018349-3.133333.304464-3.133333-11.523977 0-23.046571 0-34.570548 0-.838661 0-2.189376.714506-2.189376 1.692006v52.465157c.729331-.563516 1.460046-1.128417 2.189376-1.691933-8.1527259 0-16.3068359 0-24.4609459 0-5.340582 0-11.3869681 3.02388-6.9168772 8.935954 3.6646439 4.844578 9.0370565 9.041182 13.3217009 13.327781 7.1922794 7.195562 14.3845582 14.391124 21.5768382 21.586686 3.142902 3.144337 7.49536 9.698847 11.997281 11.12356 4.847903 1.534093 8.852994-4.242294 11.767548-7.158178 12.700318-12.707498 26.098135-24.984398 38.224121-38.241566 4.72335-5.164411 1.758974-9.325016-4.719198-9.574237-8.711833-.336448-17.501167 0-26.21992 0 .628304.480443 1.257991.959501 1.886295 1.439943 0-17.488386 0-34.976772 0-52.465158 0-2.200066-4.077055-1.689164-4.077055.251991" fill="#5d7183"/></g></svg>